# xmcd
#
# Track frame offsets:
# 150
# 17189
# 33267
# 48450
# 71108
# 89240
# 101526
# 117989
# 134265
# 150023
# 168283
# 188024
# 199848
# 215707
# 226242
# 237009
# 247559
# 264061
# 285482
# 301445
# 320659
# 337901
#
# Disc length: 4699 seconds
#
#
# Revision: 1
# Processed by: cddbd v1.5.2PL0 Copyright (c) Steve Scherf et al.
# Submitted via: FreeRIP 2.951 
#
DISCID=26125916
DTITLE=Various Artist - Jazz in Love
DYEAR=2005
DGENRE=Jazz
TTITLE0=Michael Buble - Home
TTITLE1=Renee Olstead - A Love That Will Last
TTITLE2=Norah Jones /Sunrise
TTITLE3=Emi Fujita/Fields Of Gold
TTITLE4=Ray Charles/Here We Go Again
TTITLE5=Diana Krall/S Wonderfull
TTITLE6=Brian Evans/Funny Familiar Forgotten Feelings
TTITLE7=Dusty Springfield/The Look Of Love
TTITLE8=Aseline Debison/Sweet Is The Melody
TTITLE9=Grover Washington feat Bill Withers/Just The Two Of Us
TTITLE10=Michael Franks/Tiger In The Rain
TTITLE11=Frank Sinatra/Strangers In The Night
TTITLE12=Natalie Cole and Nat King Cole/Unforgettable
TTITLE13=Louis Armstrong/What A Wonderfull World
TTITLE14=Astrud Gilberto/Fly Me To The Moon
TTITLE15=Dinah Washington/Call Me Irresponsible
TTITLE16=Jane Monkeit feat Michael Buble/I Wont Dance
TTITLE17=Robbie Williams/Its De  Lovely
TTITLE18=Lisa Ono/Cosa Hai Messo Nel Caffe
TTITLE19=Harry Connick JR/More
TTITLE20=Al Jarreau/Cold Duck
TTITLE21=Pussycat Dolls/Sway
EXTD=YEAR: 2005
EXTT0=
EXTT1=
EXTT2=
EXTT3=
EXTT4=
EXTT5=
EXTT6=
EXTT7=
EXTT8=
EXTT9=
EXTT10=
EXTT11=
EXTT12=
EXTT13=
EXTT14=
EXTT15=
EXTT16=
EXTT17=
EXTT18=
EXTT19=
EXTT20=
EXTT21=
PLAYORDER=
